# xmcd CD database file
#
# Track frame offsets:
#	150
#	23163
#	51188
#	71333
#	92858
#	118560
#	141888
#	159845
#	190160
#	214338
#	241420
#	265780
#	288920
#	311760
#
# Disc length: 4481 seconds
#
# Revision: 1
# Processed by: cddbd v1.5.2PL0 Copyright (c) Steve Scherf et al.
# Submitted via: CDex 1.70beta1
#
DISCID=c6117f0e
DTITLE=小林　香織 - KAORI'S COLLECTION
DYEAR=2006
DGENRE=Jazz
TTITLE0=WHAT'S GOING ON - KAORI KOBAYASHI
TTITLE1=STORMIN' - NORMAN BROWN
TTITLE2=WORK TO DO - AVERAGE WHITE BAND
TTITLE3=WHAT YOU WON'T DO FOR LOVE - BOBBY CALDWELL
TTITLE4=LOWDOWN - BOZ SCAGGS
TTITLE5=SE.LE.NE - DIMENSION
TTITLE6=WILD CARD - THE RIPPINGTONS
TTITLE7=LOVE ISLAND - DEODATO
TTITLE8=AZURE - KIYOTSUGU AMANO
TTITLE9=FREE - DENIECE WILLIAMS
TTITLE10=WHOSE IS IT ? - grooveline
TTITLE11=ALWAYS THERE - SIDE EFFECT
TTITLE12=BE MY LOVE - KAORI KOBAYASHI
TTITLE13=KIRA-KIRA - KAORI KOBAYASHI
EXTD=YEAR: 2006
EXTT0=
EXTT1=
EXTT2=
EXTT3=
EXTT4=
EXTT5=
EXTT6=
EXTT7=
EXTT8=
EXTT9=
EXTT10=
EXTT11=
EXTT12=
EXTT13=
PLAYORDER=
